# Blender 3.3.1
# www.blender.org
mtllib basicShip.mtl
o Cube
v 7.500000 0.000000 0.000000
v -0.000000 -0.714736 -9.880853
v -2.024752 1.914639 0.316996
v -7.500000 0.000000 0.000000
v -2.024752 -1.914639 0.316996
v 2.024752 -1.914639 0.316996
v 2.024752 1.914639 0.316996
v -1.000000 0.000000 3.451097
v -0.000000 -1.899396 1.311081
v -0.000000 1.899396 1.311081
v 0.000000 0.000000 4.875000
v 1.000000 0.000000 3.451097
v 1.292893 -0.883884 2.591732
v 1.992742 -1.248195 1.567156
v 1.617317 -1.154849 1.927732
v 2.250000 -1.178736 1.567156
v 1.000000 0.000000 4.375000
v 1.076121 -0.478354 3.451098
v 2.707107 -0.883884 1.786674
v 3.000000 0.000000 3.214286
v 2.923880 -0.478354 2.382816
v 2.443398 -1.104140 1.567156
v 2.250000 1.178736 1.567156
v 2.443398 1.104140 1.567156
v 2.923880 0.478354 2.382816
v 2.707107 0.883884 1.786674
v 1.076121 0.478354 3.451098
v 1.292893 0.883884 2.591732
v 1.617317 1.154849 1.927732
v 1.992742 1.248195 1.567156
v -3.000000 0.000000 3.214286
v -2.923880 -0.478354 2.382816
v -2.707107 -0.883884 1.786674
v -2.250000 -1.178736 1.567156
v -2.443398 -1.104140 1.567156
v -2.923880 0.478354 2.382816
v -2.707107 0.883884 1.786674
v -2.250000 1.178736 1.567156
v -2.443398 1.104140 1.567156
v -1.076121 0.478354 3.451098
v -0.757899 0.000000 4.401866
v -1.992742 1.248195 1.567156
v -1.292893 0.883884 2.591732
v -1.617317 1.154849 1.927732
v -1.992742 -1.248195 1.567156
v -1.617317 -1.154849 1.927732
v -1.076121 -0.478354 3.451098
v -1.292893 -0.883884 2.591732
v 0.871122 -1.342482 -2.448400
v -0.000000 -2.025000 1.125000
v -0.871123 1.342482 -2.448400
v -0.000000 2.025000 1.125000
v -2.024752 1.344464 1.372875
v -1.923696 1.371750 1.372875
v 1.923696 -1.371750 1.372875
v 1.430530 -1.249129 1.846534
v 1.078058 -0.954735 2.567943
v 2.024752 -1.344464 1.372875
v 0.852616 -0.532988 3.461677
v 0.871123 1.342482 -2.448400
v 0.757899 0.000000 4.401866
v 2.024752 1.344464 1.372875
v 1.078058 0.954735 2.567943
v 0.852616 0.532988 3.461677
v 1.430530 1.249129 1.846534
v 1.923696 1.371750 1.372875
v -0.871123 -1.342482 -2.448400
v -1.000000 0.000000 4.375000
v -2.024752 -1.344464 1.372875
v -0.852616 0.532988 3.461677
v -1.430530 1.249129 1.846534
v -1.923696 -1.371750 1.372875
v -1.078058 -0.954735 2.567943
v -0.852616 -0.532988 3.461677
v -1.078058 0.954735 2.567943
v -1.430530 -1.249129 1.846534
v -2.250000 2.025000 0.000000
v 0.000000 0.000000 -15.000000
v -0.000000 0.714736 -9.880853
v -2.250000 -2.025000 0.000000
v 2.250000 -2.025000 0.000000
v 2.250000 2.025000 0.000000
v -0.404466 0.714736 -10.380854
v -0.404466 -0.714736 -10.380854
v 0.404466 -0.714736 -10.380854
v 0.404466 0.714736 -10.380854
vn 0.2275 -0.8571 0.4622
vn -0.3513 -0.9194 -0.1768
vn 0.3214 -0.8332 0.4499
vn -0.3513 0.9194 -0.1768
vn 0.3214 0.8332 0.4499
vn -0.0000 1.0000 -0.0000
vn 0.3513 0.9194 -0.1768
vn -0.0000 -1.0000 -0.0000
vn 0.3513 -0.9194 -0.1768
vn 0.2275 0.8571 0.4622
vn -0.3214 -0.8332 0.4499
vn -0.3214 0.8332 0.4499
vn -0.2275 0.8571 0.4622
vn -0.2275 -0.8571 0.4622
vn -0.0000 0.9965 -0.0842
vn -0.0000 -0.9965 -0.0842
vn 0.9876 0.1572 -0.0000
vn 0.9876 -0.1572 -0.0000
vn -0.9876 -0.1572 -0.0000
vn -0.9876 0.1572 -0.0000
vn 0.2446 -0.8312 0.4994
vn -0.2446 0.8312 0.4994
vn -0.2311 0.8561 0.4623
vn 0.2311 -0.8561 0.4623
vn 0.2311 0.8561 0.4623
vn 0.1402 0.8648 0.4821
vn -0.2311 -0.8561 0.4623
vn -0.1402 0.8648 0.4821
vn -0.1402 -0.8648 0.4821
vn -0.2446 -0.8312 0.4994
vn 0.2446 0.8312 0.4994
vn 0.1402 -0.8648 0.4821
vn -0.3013 -0.9518 -0.0576
vn -0.0000 0.9633 -0.2685
vn -0.0000 -0.9633 -0.2685
vn 0.3013 -0.9518 -0.0576
vn -0.0000 -0.9904 -0.1383
vn -0.3013 0.9518 -0.0576
vn 0.3013 0.9518 -0.0576
vn -0.0000 0.9904 -0.1383
vt 0.500000 0.750000
vt 0.274511 0.598043
vt 0.584887 0.020437
vt 0.500000 0.000000
vt 0.125000 0.750000
vt 0.265085 0.729563
vt 0.359915 0.729563
vt 0.040113 0.020437
vt 0.750000 0.500000
vt 0.312465 0.729563
vt 0.311652 0.020437
vt 0.312500 0.375000
vt 0.250000 0.500000
vt 0.280460 0.538682
vt 0.302107 0.606147
vt 0.294258 0.588861
vt 0.296642 0.593284
vt 0.250000 0.989907
vt 0.256944 0.375000
vt 0.312500 0.500000
vt 0.268263 0.463584
vt 0.296550 0.571333
vt 0.232143 0.428571
vt 0.271904 0.511718
vt 0.301247 0.593284
vt 0.078358 0.156716
vt 0.096777 0.184344
vt 0.183320 0.334550
vt 0.132868 0.243968
vt 0.187500 0.828707
vt 0.237168 0.286416
vt 0.200885 0.211318
vt 0.151040 0.161139
vt 0.101477 0.143853
vt 0.392857 0.428571
vt 0.353096 0.511718
vt 0.328450 0.571333
vt 0.328358 0.593284
vt 0.323753 0.593284
vt 0.441680 0.334550
vt 0.492132 0.243968
vt 0.546642 0.156716
vt 0.528223 0.184344
vt 0.812500 0.500000
vt 0.387832 0.286416
vt 0.354923 0.380715
vt 0.523523 0.143853
vt 0.424115 0.211318
vt 0.473960 0.161139
vt 0.322893 0.606147
vt 0.330742 0.588861
vt 0.687500 0.828707
vt 0.356737 0.463584
vt 0.344540 0.538682
vt 0.343330 0.735681
vt 0.312500 0.750000
vt 0.495286 0.014319
vt 0.312500 0.000000
vt 0.535125 0.126025
vt 0.525613 0.120972
vt 0.311869 0.629028
vt 0.301971 0.606320
vt 0.289008 0.551803
vt 0.310153 0.623975
vt 0.279058 0.473702
vt 0.151191 0.014319
vt 0.270077 0.380715
vt 0.089875 0.126025
vt 0.216208 0.198197
vt 0.251207 0.276298
vt 0.164081 0.143680
vt 0.099388 0.120972
vt 0.274511 0.735681
vt 0.750000 0.989907
vt 0.368056 0.375000
vt 0.314847 0.623975
vt 0.373793 0.276298
vt 0.460919 0.143680
vt 0.313132 0.629028
vt 0.335992 0.551803
vt 0.345942 0.473702
vt 0.408792 0.198197
vt 0.323029 0.606320
vt 0.625000 0.000000
vt 0.500000 0.250000
vt 0.250000 0.500000
vt 0.500000 0.500000
vt 0.426468 0.151957
vt 0.250000 0.750000
vt 0.375000 0.750000
vt 0.000000 0.000000
vt 0.562500 0.125000
vt 0.250000 0.625000
vt 0.312500 0.625000
vt 0.250000 0.250000
s 0
usemtl BaseColor
f 78/86/2 84/93/2 80/89/2 4/5/2
f 16/17/3 81/90/3 1/1/3 20/23/3 21/24/3 19/22/3 22/25/3
f 77/84/4 83/92/4 78/85/4 4/4/4
f 25/28/5 20/23/5 1/1/5 82/91/5 23/26/5 24/27/5 26/29/5
f 78/87/7 86/95/7 82/91/7 1/1/7
f 78/86/9 1/1/9 81/90/9 85/94/9
f 4/5/11 80/89/11 34/38/11 35/39/11 33/37/11 32/36/11 31/35/11
f 38/42/12 77/84/12 4/5/12 31/35/12 36/40/12 37/41/12 39/43/12
f 79/88/15 51/57/15 60/66/15
f 2/2/16 49/55/16 67/73/16
f 18/20/17 12/13/17 17/18/17
f 17/18/18 12/13/18 27/30/18
f 40/44/19 8/9/19 68/74/19
f 68/74/20 8/9/20 47/52/20
f 6/7/21 9/10/21 50/56/21 81/90/21
f 3/3/22 10/11/22 52/58/22 77/84/22
f 54/60/23 53/59/23 38/42/23 42/47/23
f 56/62/24 55/61/24 14/15/24 15/16/24
f 58/64/24 6/7/24 81/90/24 16/17/24
f 59/65/24 57/63/24 13/14/24 18/21/24
f 7/8/25 62/68/25 23/26/25 82/91/25
f 64/70/26 61/67/26 17/19/26 27/31/26
f 65/71/25 63/69/25 28/32/25 29/33/25
f 66/72/25 65/71/25 29/33/25 30/34/25
f 5/6/27 69/76/27 34/38/27 80/89/27
f 53/59/23 3/3/23 77/84/23 38/42/23
f 41/46/28 70/77/28 40/45/28 68/75/28
f 71/78/23 54/60/23 42/47/23 44/49/23
f 69/76/27 72/79/27 45/50/27 34/38/27
f 74/81/29 41/46/29 68/75/29 47/53/29
f 73/80/27 74/81/27 47/53/27 48/54/27
f 75/82/23 71/78/23 44/49/23 43/48/23
f 62/68/25 66/72/25 30/34/25 23/26/25
f 72/79/27 76/83/27 46/51/27 45/50/27
f 76/83/27 73/80/27 48/54/27 46/51/27
f 63/69/25 64/70/25 27/31/25 28/32/25
f 9/10/30 5/6/30 80/89/30 50/56/30
f 57/63/24 56/62/24 15/16/24 13/14/24
f 55/61/24 58/64/24 16/17/24 14/15/24
f 10/11/31 7/8/31 82/91/31 52/58/31
f 70/77/23 75/82/23 43/48/23 40/45/23
f 61/67/32 59/65/32 18/21/32 17/19/32
f 67/73/35 49/55/35 81/90/35 80/89/35
f 78/86/37 85/94/37 2/2/37 84/93/37
f 78/87/40 83/92/40 79/88/40 86/95/40
usemtl HighlightColor
f 59/65/1 61/67/1 11/12/1 9/10/1 6/7/1 58/64/1 55/61/1 56/62/1 57/63/1
f 52/58/6 82/91/6 77/84/6
f 50/56/8 80/89/8 81/90/8
f 66/72/10 62/68/10 7/8/10 10/11/10 11/12/10 61/67/10 64/70/10 63/69/10 65/71/10
f 41/46/13 11/12/13 10/11/13 3/3/13 53/59/13 54/60/13 71/78/13 75/82/13 70/77/13
f 5/6/14 9/10/14 11/12/14 41/46/14 74/81/14 73/80/14 76/83/14 72/79/14 69/76/14
f 81/90/33 49/55/33 2/2/33 85/94/33
f 80/89/36 84/93/36 2/2/36 67/73/36
f 82/91/38 86/95/38 79/88/38 60/66/38
f 77/84/39 51/57/39 79/88/39 83/92/39
usemtl CockpitColor
f 60/66/34 51/57/34 77/84/34 82/91/34
o Cube.002
v 1.617314 -1.154850 1.927731
v 1.999997 -0.000000 2.673230
v 1.292890 -0.883884 2.591732
v 1.076118 -0.478355 3.451098
v 1.076117 0.478354 3.451098
v 1.292890 0.883883 2.591732
v 1.617313 1.154849 1.927731
v 2.382680 1.154849 1.516617
v 2.707104 0.883884 1.786674
v 2.923877 0.478354 2.382816
v 2.999997 0.000000 3.214285
v 2.923877 -0.478354 2.382816
v 2.707104 -0.883883 1.786673
v 2.382681 -1.154850 1.516616
v 1.617314 -1.154849 3.464286
v 1.999997 -1.250000 3.464286
v 1.292890 -0.883884 3.464286
v 1.076118 -0.478355 3.464286
v 0.999997 -0.000000 3.464286
v 1.076117 0.478354 3.464286
v 1.292890 0.883883 3.464286
v 1.617313 1.154849 3.464286
v 1.999997 1.250000 3.464286
v 2.382680 1.154850 3.464286
v 2.707104 0.883884 3.464286
v 2.923877 0.478354 3.464286
v 2.999997 0.000000 3.464286
v 2.923877 -0.478354 3.464286
v 2.707104 -0.883883 3.464286
v 2.382681 -1.154849 3.464286
v 1.695350 -0.919354 3.464286
v 1.999997 -0.995102 3.464286
v 1.437082 -0.703644 3.464286
v 1.264513 -0.380809 3.464286
v 1.203915 -0.000000 3.464286
v 1.264513 0.380809 3.464286
v 1.437082 0.703644 3.464286
v 1.695349 0.919355 3.464286
v 1.999997 0.995102 3.464286
v 2.304644 0.919355 3.464286
v 2.562912 0.703644 3.464286
v 2.735481 0.380809 3.464286
v 2.796079 0.000000 3.464286
v 2.735481 -0.380809 3.464286
v 2.562912 -0.703643 3.464286
v 2.304644 -0.919354 3.464286
v 1.999997 -1.250000 1.560184
v 1.999997 1.250000 1.560184
vn -0.2413 -0.9705 -0.0000
vn -0.6410 -0.7675 -0.0000
vn -0.8819 -0.4714 -0.0000
vn -0.8819 0.4714 -0.0000
vn -0.6410 0.7675 -0.0000
vn -0.2413 0.9705 -0.0000
vn 0.2413 0.9705 -0.0000
vn 0.6410 0.7675 -0.0000
vn 0.8819 0.4714 -0.0000
vn 0.9876 0.1572 -0.0000
vn 0.9876 -0.1572 -0.0000
vn 0.8819 -0.4714 -0.0000
vn 0.6410 -0.7675 -0.0000
vn 0.2413 -0.9705 -0.0000
vn -0.0000 -0.0000 1.0000
vn 0.1529 0.6150 0.7736
vn 0.4230 0.5064 0.7514
vn 0.6092 0.3256 0.7231
vn 0.7005 0.1115 0.7049
vn 0.7005 -0.1115 0.7049
vn 0.6092 -0.3256 0.7231
vn 0.4230 -0.5064 0.7514
vn 0.1529 -0.6150 0.7736
vn -0.1529 -0.6150 0.7736
vn -0.4230 -0.5064 0.7514
vn -0.6092 -0.3256 0.7231
vn -0.7005 -0.1115 0.7049
vn -0.7005 0.1115 0.7049
vn -0.6092 0.3256 0.7231
vn -0.4230 0.5064 0.7514
vn -0.1529 0.6150 0.7736
vt 0.937500 0.500000
vt 0.323115 0.426516
vt 0.385100 0.385100
vt 0.426516 0.323115
vt 0.441060 0.250000
vt 0.426516 0.176885
vt 0.385100 0.114900
vt 0.323115 0.073484
vt 0.250000 0.058940
vt 0.176885 0.073484
vt 0.114900 0.114900
vt 0.073484 0.176885
vt 0.058940 0.250000
vt 0.073484 0.323115
vt 0.114900 0.385100
vt 0.176885 0.426516
vt 0.250000 0.441060
vt 0.875000 0.500000
vt 0.812500 0.500000
vt 0.687500 0.500000
vt 0.625000 0.500000
vt 0.562500 0.500000
vt 0.437500 0.500000
vt 0.375000 0.500000
vt 0.312500 0.500000
vt 0.250000 0.500000
vt 0.187500 0.500000
vt 0.125000 0.500000
vt 0.062500 0.500000
vt 0.937500 1.000000
vt 0.341844 0.471731
vt 1.000000 1.000000
vt 0.000000 1.000000
vt 0.250000 0.490000
vt 0.875000 1.000000
vt 0.419706 0.419706
vt 0.812500 1.000000
vt 0.471731 0.341844
vt 0.490000 0.250000
vt 0.687500 1.000000
vt 0.471731 0.158156
vt 0.625000 1.000000
vt 0.419706 0.080294
vt 0.562500 1.000000
vt 0.341844 0.028269
vt 0.500000 1.000000
vt 0.250000 0.010000
vt 0.437500 1.000000
vt 0.158156 0.028269
vt 0.375000 1.000000
vt 0.080294 0.080294
vt 0.312500 1.000000
vt 0.028269 0.158156
vt 0.250000 1.000000
vt 0.010000 0.250000
vt 0.187500 1.000000
vt 0.028269 0.341844
vt 0.125000 1.000000
vt 0.080294 0.419706
vt 0.062500 1.000000
vt 0.158156 0.471731
vt 0.323115 0.426516
vt 0.250000 0.441060
vt 0.385100 0.385100
vt 0.426516 0.323115
vt 0.441060 0.250000
vt 0.426516 0.176885
vt 0.385100 0.114900
vt 0.323115 0.073484
vt 0.250000 0.058940
vt 0.176885 0.073484
vt 0.114900 0.114900
vt 0.073484 0.176885
vt 0.058940 0.250000
vt 0.073484 0.323115
vt 0.114900 0.385100
vt 0.176885 0.426516
vt 1.000000 0.500000
vt 0.000000 0.500000
vt 0.500000 0.500000
s 0
usemtl BaseColor
f 133/173/41 102/127/41 101/125/41 87/96/41
f 87/96/42 101/125/42 103/130/42 89/113/42
f 89/113/43 103/130/43 104/132/43 90/114/43
f 91/115/44 106/135/44 107/137/44 92/116/44
f 92/116/45 107/137/45 108/139/45 93/117/45
f 93/117/46 108/139/46 109/141/46 134/175/46
f 134/175/47 109/141/47 110/143/47 94/118/47
f 94/118/48 110/143/48 111/145/48 95/119/48
f 95/119/49 111/145/49 112/147/49 96/120/49
f 96/120/50 112/147/50 113/149/50 97/121/50
f 97/121/51 113/149/51 114/151/51 98/122/51
f 98/122/52 114/151/52 115/153/52 99/123/52
f 99/123/53 115/153/53 116/155/53 100/124/53
f 100/124/54 116/155/54 102/128/54 133/174/54
f 118/158/55 117/157/55 101/126/55 102/129/55
f 117/157/55 119/159/55 103/131/55 101/126/55
f 119/159/55 120/160/55 104/133/55 103/131/55
f 120/160/55 121/161/55 105/134/55 104/133/55
f 121/161/55 122/162/55 106/136/55 105/134/55
f 122/162/55 123/163/55 107/138/55 106/136/55
f 123/163/55 124/164/55 108/140/55 107/138/55
f 124/164/55 125/165/55 109/142/55 108/140/55
f 125/165/55 126/166/55 110/144/55 109/142/55
f 126/166/55 127/167/55 111/146/55 110/144/55
f 127/167/55 128/168/55 112/148/55 111/146/55
f 128/168/55 129/169/55 113/150/55 112/148/55
f 129/169/55 130/170/55 114/152/55 113/150/55
f 130/170/55 131/171/55 115/154/55 114/152/55
f 131/171/55 132/172/55 116/156/55 115/154/55
f 132/172/55 118/158/55 102/129/55 116/156/55
usemtl ThrustColor
f 88/97/56 117/157/56 118/158/56
f 88/98/57 119/159/57 117/157/57
f 88/99/58 120/160/58 119/159/58
f 88/100/59 121/161/59 120/160/59
f 88/101/60 122/162/60 121/161/60
f 88/102/61 123/163/61 122/162/61
f 88/103/62 124/164/62 123/163/62
f 88/104/63 125/165/63 124/164/63
f 88/105/64 126/166/64 125/165/64
f 88/106/65 127/167/65 126/166/65
f 88/107/66 128/168/66 127/167/66
f 88/108/67 129/169/67 128/168/67
f 88/109/68 130/170/68 129/169/68
f 88/110/69 131/171/69 130/170/69
f 88/111/70 132/172/70 131/171/70
f 88/112/71 118/158/71 132/172/71
o Cube.001
v -1.617317 1.154850 1.927731
v -2.000000 0.000000 2.673230
v -1.292893 0.883884 2.591732
v -1.076121 0.478354 3.451098
v -1.076121 -0.478354 3.451098
v -1.292893 -0.883883 2.591732
v -1.617317 -1.154849 1.927731
v -2.382684 -1.154849 1.516617
v -2.707107 -0.883883 1.786674
v -2.923880 -0.478354 2.382816
v -3.000000 0.000000 3.214285
v -2.923880 0.478354 2.382816
v -2.707107 0.883884 1.786673
v -2.382684 1.154850 1.516616
v -1.617317 1.154849 3.464286
v -2.000000 1.250000 3.464286
v -1.292893 0.883883 3.464286
v -1.076121 0.478354 3.464286
v -1.000000 -0.000000 3.464286
v -1.076121 -0.478354 3.464286
v -1.292893 -0.883884 3.464286
v -1.617317 -1.154850 3.464286
v -2.000000 -1.250000 3.464286
v -2.382684 -1.154850 3.464286
v -2.707107 -0.883884 3.464286
v -2.923880 -0.478354 3.464286
v -3.000000 -0.000000 3.464286
v -2.923880 0.478354 3.464286
v -2.707107 0.883883 3.464286
v -2.382684 1.154849 3.464286
v -1.695353 0.919354 3.464286
v -2.000000 0.995102 3.464286
v -1.437085 0.703643 3.464286
v -1.264516 0.380809 3.464286
v -1.203918 -0.000000 3.464286
v -1.264516 -0.380809 3.464286
v -1.437085 -0.703644 3.464286
v -1.695353 -0.919355 3.464286
v -2.000000 -0.995102 3.464286
v -2.304647 -0.919355 3.464286
v -2.562915 -0.703644 3.464286
v -2.735484 -0.380809 3.464286
v -2.796082 -0.000000 3.464286
v -2.735484 0.380809 3.464286
v -2.562915 0.703643 3.464286
v -2.304647 0.919354 3.464286
v -2.000000 1.250000 1.560184
v -2.000000 -1.250000 1.560184
vn 0.2413 0.9705 -0.0000
vn 0.6410 0.7675 -0.0000
vn 0.8819 0.4714 -0.0000
vn 0.8819 -0.4714 -0.0000
vn 0.6410 -0.7675 -0.0000
vn 0.2413 -0.9705 -0.0000
vn -0.2413 -0.9705 -0.0000
vn -0.6410 -0.7675 -0.0000
vn -0.8819 -0.4714 -0.0000
vn -0.9876 -0.1572 -0.0000
vn -0.9876 0.1572 -0.0000
vn -0.8819 0.4714 -0.0000
vn -0.6410 0.7675 -0.0000
vn -0.2413 0.9705 -0.0000
vn -0.0000 -0.0000 1.0000
vn -0.1529 -0.6150 0.7736
vn -0.4230 -0.5064 0.7514
vn -0.6092 -0.3256 0.7231
vn -0.7005 -0.1115 0.7049
vn -0.7005 0.1115 0.7049
vn -0.6092 0.3256 0.7231
vn -0.4230 0.5064 0.7514
vn -0.1529 0.6150 0.7736
vn 0.1529 0.6150 0.7736
vn 0.4230 0.5064 0.7514
vn 0.6092 0.3256 0.7231
vn 0.7005 0.1115 0.7049
vn 0.7005 -0.1115 0.7049
vn 0.6092 -0.3256 0.7231
vn 0.4230 -0.5064 0.7514
vn 0.1529 -0.6150 0.7736
vt 0.937500 0.500000
vt 0.323115 0.426516
vt 0.385100 0.385100
vt 0.426516 0.323115
vt 0.441060 0.250000
vt 0.426516 0.176885
vt 0.385100 0.114900
vt 0.323115 0.073484
vt 0.250000 0.058940
vt 0.176885 0.073484
vt 0.114900 0.114900
vt 0.073484 0.176885
vt 0.058940 0.250000
vt 0.073484 0.323115
vt 0.114900 0.385100
vt 0.176885 0.426516
vt 0.250000 0.441060
vt 0.875000 0.500000
vt 0.812500 0.500000
vt 0.687500 0.500000
vt 0.625000 0.500000
vt 0.562500 0.500000
vt 0.437500 0.500000
vt 0.375000 0.500000
vt 0.312500 0.500000
vt 0.250000 0.500000
vt 0.187500 0.500000
vt 0.125000 0.500000
vt 0.062500 0.500000
vt 0.937500 1.000000
vt 0.341844 0.471731
vt 1.000000 1.000000
vt 0.000000 1.000000
vt 0.250000 0.490000
vt 0.875000 1.000000
vt 0.419706 0.419706
vt 0.812500 1.000000
vt 0.471731 0.341844
vt 0.490000 0.250000
vt 0.687500 1.000000
vt 0.471731 0.158156
vt 0.625000 1.000000
vt 0.419706 0.080294
vt 0.562500 1.000000
vt 0.341844 0.028269
vt 0.500000 1.000000
vt 0.250000 0.010000
vt 0.437500 1.000000
vt 0.158156 0.028269
vt 0.375000 1.000000
vt 0.080294 0.080294
vt 0.312500 1.000000
vt 0.028269 0.158156
vt 0.250000 1.000000
vt 0.010000 0.250000
vt 0.187500 1.000000
vt 0.028269 0.341844
vt 0.125000 1.000000
vt 0.080294 0.419706
vt 0.062500 1.000000
vt 0.158156 0.471731
vt 0.323115 0.426516
vt 0.250000 0.441060
vt 0.385100 0.385100
vt 0.426516 0.323115
vt 0.441060 0.250000
vt 0.426516 0.176885
vt 0.385100 0.114900
vt 0.323115 0.073484
vt 0.250000 0.058940
vt 0.176885 0.073484
vt 0.114900 0.114900
vt 0.073484 0.176885
vt 0.058940 0.250000
vt 0.073484 0.323115
vt 0.114900 0.385100
vt 0.176885 0.426516
vt 1.000000 0.500000
vt 0.000000 0.500000
vt 0.500000 0.500000
s 0
usemtl BaseColor
f 181/253/72 150/207/72 149/205/72 135/176/72
f 135/176/73 149/205/73 151/210/73 137/193/73
f 137/193/74 151/210/74 152/212/74 138/194/74
f 139/195/75 154/215/75 155/217/75 140/196/75
f 140/196/76 155/217/76 156/219/76 141/197/76
f 141/197/77 156/219/77 157/221/77 182/255/77
f 182/255/78 157/221/78 158/223/78 142/198/78
f 142/198/79 158/223/79 159/225/79 143/199/79
f 143/199/80 159/225/80 160/227/80 144/200/80
f 144/200/81 160/227/81 161/229/81 145/201/81
f 145/201/82 161/229/82 162/231/82 146/202/82
f 146/202/83 162/231/83 163/233/83 147/203/83
f 147/203/84 163/233/84 164/235/84 148/204/84
f 148/204/85 164/235/85 150/208/85 181/254/85
f 166/238/86 165/237/86 149/206/86 150/209/86
f 165/237/86 167/239/86 151/211/86 149/206/86
f 167/239/86 168/240/86 152/213/86 151/211/86
f 168/240/86 169/241/86 153/214/86 152/213/86
f 169/241/86 170/242/86 154/216/86 153/214/86
f 170/242/86 171/243/86 155/218/86 154/216/86
f 171/243/86 172/244/86 156/220/86 155/218/86
f 172/244/86 173/245/86 157/222/86 156/220/86
f 173/245/86 174/246/86 158/224/86 157/222/86
f 174/246/86 175/247/86 159/226/86 158/224/86
f 175/247/86 176/248/86 160/228/86 159/226/86
f 176/248/86 177/249/86 161/230/86 160/228/86
f 177/249/86 178/250/86 162/232/86 161/230/86
f 178/250/86 179/251/86 163/234/86 162/232/86
f 179/251/86 180/252/86 164/236/86 163/234/86
f 180/252/86 166/238/86 150/209/86 164/236/86
usemtl ThrustColor
f 136/177/87 165/237/87 166/238/87
f 136/178/88 167/239/88 165/237/88
f 136/179/89 168/240/89 167/239/89
f 136/180/90 169/241/90 168/240/90
f 136/181/91 170/242/91 169/241/91
f 136/182/92 171/243/92 170/242/92
f 136/183/93 172/244/93 171/243/93
f 136/184/94 173/245/94 172/244/94
f 136/185/95 174/246/95 173/245/95
f 136/186/96 175/247/96 174/246/96
f 136/187/97 176/248/97 175/247/97
f 136/188/98 177/249/98 176/248/98
f 136/189/99 178/250/99 177/249/99
f 136/190/100 179/251/100 178/250/100
f 136/191/101 180/252/101 179/251/101
f 136/192/102 166/238/102 180/252/102
